<svg width="266" height="73" viewBox="0 0 266 73" fill="none" xmlns="http://www.w3.org/2000/svg">
<path d="M98.1888 41.9067H94.6076L86.4987 29.6539V41.9067H82.9175V24.0263H86.4987L94.6076 36.3047V24.0263H98.1888V41.9067ZM114.902 34.5141C114.902 35.0257 114.867 35.4862 114.799 35.8954H104.439C104.525 36.9186 104.883 37.7201 105.514 38.3C106.145 38.8798 106.921 39.1697 107.841 39.1697C109.172 39.1697 110.118 38.5984 110.681 37.4558H114.543C114.134 38.8201 113.35 39.9456 112.19 40.8324C111.03 41.7021 109.606 42.137 107.918 42.137C106.554 42.137 105.326 41.8385 104.235 41.2417C103.16 40.6277 102.316 39.7665 101.702 38.6581C101.105 37.5496 100.807 36.2706 100.807 34.8211C100.807 33.3545 101.105 32.067 101.702 30.9585C102.299 29.85 103.135 28.9974 104.209 28.4005C105.283 27.8036 106.52 27.5052 107.918 27.5052C109.265 27.5052 110.468 27.7951 111.525 28.3749C112.599 28.9547 113.426 29.7818 114.006 30.8562C114.603 31.9135 114.902 33.1328 114.902 34.5141ZM111.192 33.4909C111.175 32.57 110.843 31.8367 110.195 31.291C109.547 30.7283 108.754 30.4469 107.816 30.4469C106.929 30.4469 106.179 30.7198 105.565 31.2655C104.968 31.7941 104.601 32.5359 104.465 33.4909H111.192ZM125.343 41.9067L122.427 37.507L119.843 41.9067H116.006L120.636 34.7955L115.955 27.7354H119.997L122.887 32.1096L125.496 27.7354H129.333L124.678 34.7955L129.385 41.9067H125.343ZM135.499 30.6771V37.5326C135.499 38.0101 135.61 38.3596 135.832 38.5813C136.071 38.786 136.463 38.8883 137.008 38.8883H138.671V41.9067H136.42C133.402 41.9067 131.892 40.4402 131.892 37.507V30.6771H130.204V27.7354H131.892V24.231H135.499V27.7354H138.671V30.6771H135.499ZM153.679 29.4237C153.27 28.6734 152.707 28.1021 151.991 27.7098C151.274 27.3176 150.439 27.1215 149.484 27.1215C148.426 27.1215 147.488 27.3602 146.67 27.8377C145.851 28.3152 145.212 28.9974 144.751 29.8841C144.291 30.7709 144.061 31.7941 144.061 32.9537C144.061 34.1475 144.291 35.1877 144.751 36.0745C145.229 36.9613 145.885 37.6434 146.721 38.1209C147.557 38.5984 148.529 38.8371 149.637 38.8371C151.001 38.8371 152.118 38.479 152.988 37.7628C153.858 37.0295 154.429 36.0148 154.702 34.7188H148.563V31.9817H158.232V35.1025C157.993 36.3474 157.482 37.4985 156.697 38.5558C155.913 39.6131 154.898 40.4657 153.653 41.1138C152.425 41.7447 151.044 42.0602 149.509 42.0602C147.787 42.0602 146.227 41.6765 144.828 40.9091C143.447 40.1247 142.355 39.0418 141.554 37.6605C140.769 36.2791 140.377 34.7102 140.377 32.9537C140.377 31.1972 140.769 29.6283 141.554 28.247C142.355 26.8486 143.447 25.7658 144.828 24.9984C146.227 24.2139 147.778 23.8217 149.484 23.8217C151.496 23.8217 153.244 24.3162 154.728 25.3053C156.211 26.2774 157.234 27.6502 157.797 29.4237H153.679ZM174.055 34.5141C174.055 35.0257 174.021 35.4862 173.953 35.8954H163.593C163.678 36.9186 164.036 37.7201 164.667 38.3C165.298 38.8798 166.074 39.1697 166.995 39.1697C168.325 39.1697 169.272 38.5984 169.835 37.4558H173.697C173.288 38.8201 172.503 39.9456 171.344 40.8324C170.184 41.7021 168.76 42.137 167.072 42.137C165.708 42.137 164.48 41.8385 163.388 41.2417C162.314 40.6277 161.47 39.7665 160.856 38.6581C160.259 37.5496 159.961 36.2706 159.961 34.8211C159.961 33.3545 160.259 32.067 160.856 30.9585C161.453 29.85 162.288 28.9974 163.363 28.4005C164.437 27.8036 165.674 27.5052 167.072 27.5052C168.419 27.5052 169.621 27.7951 170.679 28.3749C171.753 28.9547 172.58 29.7818 173.16 30.8562C173.757 31.9135 174.055 33.1328 174.055 34.5141ZM170.346 33.4909C170.329 32.57 169.997 31.8367 169.349 31.291C168.701 30.7283 167.908 30.4469 166.97 30.4469C166.083 30.4469 165.333 30.7198 164.719 31.2655C164.122 31.7941 163.755 32.5359 163.619 33.4909H170.346ZM184.522 27.5308C186.211 27.5308 187.575 28.068 188.615 29.1423C189.655 30.1996 190.175 31.6833 190.175 33.5932V41.9067H186.594V34.0793C186.594 32.9537 186.313 32.0925 185.75 31.4957C185.187 30.8818 184.42 30.5748 183.448 30.5748C182.459 30.5748 181.674 30.8818 181.095 31.4957C180.532 32.0925 180.25 32.9537 180.25 34.0793V41.9067H176.669V27.7354H180.25V29.5004C180.728 28.8865 181.333 28.409 182.067 28.068C182.817 27.7098 183.636 27.5308 184.522 27.5308Z" fill="white"/>
<path d="M203.711 32.7491C204.717 32.9367 205.544 33.4398 206.192 34.2583C206.84 35.0769 207.164 36.0148 207.164 37.0721C207.164 38.0271 206.925 38.8712 206.448 39.6045C205.987 40.3208 205.314 40.8835 204.427 41.2928C203.54 41.7021 202.491 41.9067 201.281 41.9067H193.581V24.0519H200.948C202.159 24.0519 203.199 24.248 204.069 24.6402C204.956 25.0325 205.621 25.5782 206.064 26.2774C206.525 26.9765 206.755 27.7695 206.755 28.6563C206.755 29.6966 206.473 30.5663 205.911 31.2655C205.365 31.9646 204.632 32.4592 203.711 32.7491ZM197.162 31.4189H200.436C201.289 31.4189 201.946 31.2314 202.406 30.8562C202.867 30.464 203.097 29.9097 203.097 29.1935C203.097 28.4772 202.867 27.923 202.406 27.5308C201.946 27.1386 201.289 26.9424 200.436 26.9424H197.162V31.4189ZM200.769 38.9906C201.639 38.9906 202.312 38.786 202.79 38.3767C203.284 37.9674 203.532 37.3876 203.532 36.6373C203.532 35.8699 203.276 35.273 202.764 34.8467C202.253 34.4033 201.562 34.1816 200.692 34.1816H197.162V38.9906H200.769ZM209.097 34.7699C209.097 33.3374 209.379 32.067 209.941 30.9585C210.521 29.85 211.297 28.9974 212.269 28.4005C213.258 27.8036 214.358 27.5052 215.569 27.5052C216.626 27.5052 217.547 27.7184 218.332 28.1447C219.133 28.571 219.773 29.1082 220.25 29.7562V27.7354H223.857V41.9067H220.25V39.8348C219.79 40.4998 219.15 41.0541 218.332 41.4975C217.53 41.9238 216.601 42.137 215.543 42.137C214.35 42.137 213.258 41.83 212.269 41.2161C211.297 40.6022 210.521 39.741 209.941 38.6325C209.379 37.507 209.097 36.2195 209.097 34.7699ZM220.25 34.8211C220.25 33.9514 220.08 33.2095 219.739 32.5956C219.398 31.9646 218.937 31.4872 218.357 31.1631C217.777 30.8221 217.155 30.6515 216.49 30.6515C215.825 30.6515 215.211 30.8135 214.648 31.1376C214.085 31.4616 213.625 31.9391 213.267 32.57C212.926 33.184 212.755 33.9173 212.755 34.7699C212.755 35.6226 212.926 36.3729 213.267 37.021C213.625 37.6519 214.085 38.138 214.648 38.479C215.228 38.8201 215.842 38.9906 216.49 38.9906C217.155 38.9906 217.777 38.8286 218.357 38.5046C218.937 38.1635 219.398 37.686 219.739 37.0721C220.08 36.4411 220.25 35.6908 220.25 34.8211ZM235.208 27.5308C236.896 27.5308 238.26 28.068 239.3 29.1423C240.341 30.1996 240.861 31.6833 240.861 33.5932V41.9067H237.28V34.0793C237.28 32.9537 236.998 32.0925 236.436 31.4957C235.873 30.8818 235.105 30.5748 234.133 30.5748C233.144 30.5748 232.36 30.8818 231.78 31.4957C231.217 32.0925 230.936 32.9537 230.936 34.0793V41.9067H227.355V27.7354H230.936V29.5004C231.413 28.8865 232.019 28.409 232.752 28.068C233.502 27.7098 234.321 27.5308 235.208 27.5308ZM252.657 41.9067L247.848 35.8699V41.9067H244.266V22.9775H247.848V33.7467L252.605 27.7354H257.261L251.02 34.8467L257.312 41.9067H252.657Z" fill="#5CE1E6"/>
<path d="M36.0678 0C28.9343 -8.50666e-08 21.9609 2.11534 16.0296 6.07852C10.0983 10.0417 5.47539 15.6747 2.7455 22.2652C0.0156126 28.8558 -0.698651 36.1078 0.693031 43.1043C2.08471 50.1007 5.51984 56.5274 10.564 61.5716C15.6082 66.6157 22.0348 70.0509 29.0313 71.4426C36.0278 72.8342 43.2798 72.12 49.8703 69.3901C56.4609 66.6602 62.0939 62.0373 66.0571 56.106C70.0202 50.1747 72.1356 43.2013 72.1356 36.0678L54.1017 36.0678C54.1017 39.6346 53.044 43.1212 51.0624 46.0869C49.0808 49.0526 46.2643 51.364 42.9691 52.7289C39.6738 54.0939 36.0478 54.451 32.5495 53.7552C29.0513 53.0593 25.838 51.3418 23.3159 48.8197C20.7938 46.2976 19.0763 43.0843 18.3804 39.586C17.6846 36.0878 18.0417 32.4618 19.4066 29.1665C20.7716 25.8713 23.083 23.0547 26.0487 21.0732C29.0144 19.0916 32.501 18.0339 36.0678 18.0339V0Z" fill="white"/>
<path d="M36.0678 0C31.3313 -5.64821e-08 26.6412 0.932921 22.2652 2.7455C17.8893 4.55807 13.9132 7.21481 10.564 10.564C7.21481 13.9132 4.55807 17.8893 2.7455 22.2653C0.93292 26.6412 -7.1519e-07 31.3313 0 36.0678H18.0339C18.0339 33.6996 18.5004 31.3545 19.4066 29.1665C20.3129 26.9785 21.6413 24.9905 23.3159 23.3159C24.9905 21.6413 26.9785 20.3129 29.1665 19.4066C31.3545 18.5004 33.6996 18.0339 36.0678 18.0339V0Z" fill="#5CE1E6"/>
<circle cx="36.0678" cy="36.0678" r="11.2712" fill="#5CE1E6"/>
<path d="M47.339 36.0678C47.339 34.5877 47.0474 33.122 46.481 31.7545C45.9146 30.387 45.0843 29.1445 44.0377 28.0979C42.9911 27.0513 41.7486 26.221 40.3811 25.6546C39.0136 25.0882 37.5479 24.7966 36.0678 24.7966C34.5876 24.7966 33.122 25.0882 31.7545 25.6546C30.387 26.221 29.1445 27.0513 28.0979 28.0979C27.0512 29.1445 26.221 30.387 25.6546 31.7545C25.0881 33.122 24.7966 34.5877 24.7966 36.0678L36.0678 36.0678H47.339Z" fill="white"/>
</svg>
